<?xml version="1.0" encoding="UTF-8" standalone="no"?>
<!DOCTYPE svg PUBLIC "-//W3C//DTD SVG 20010904//EN"
              "http://www.w3.org/TR/2001/REC-SVG-20010904/DTD/svg10.dtd">

<svg xmlns="http://www.w3.org/2000/svg"
     width="3.71111in" height="0.722222in"
     viewBox="0 0 334 65">
  <path id="Selection"
        fill="none" stroke="black" stroke-width="1"
        d="M 45.34,24.95
           C 43.55,30.64 38.60,27.34 35.00,26.73
             30.75,26.01 26.20,29.01 24.61,33.02
             24.29,34.29 24.19,35.67 24.61,37.00
             25.46,41.66 30.23,45.31 35.00,44.33
             37.52,43.80 40.15,41.84 42.77,43.13
             45.09,44.27 48.72,50.12 40.98,53.39
             28.10,58.84 13.33,50.20 14.04,34.00
             14.19,30.64 14.79,27.85 16.70,25.00
             20.16,19.85 24.27,18.05 30.00,16.52
             34.67,15.88 47.70,17.46 45.34,24.95 Z
           M 151.18,16.84
           C 154.53,15.80 158.32,18.69 157.44,23.00
             156.55,27.35 147.99,36.86 146.51,42.00
             145.25,46.36 147.24,51.64 143.69,53.79
             141.62,55.04 138.59,54.49 137.17,52.51
             135.11,49.63 136.83,44.40 135.16,40.00
             133.30,35.09 125.42,26.38 124.87,22.04
             124.37,18.09 128.75,15.72 131.82,17.13
             133.67,17.97 135.20,20.36 136.31,22.00
             138.89,25.84 138.84,26.14 142.00,30.00
             143.28,26.64 147.65,17.95 151.18,16.84 Z
           M 266.52,32.02
           C 268.16,30.81 272.00,30.96 274.00,31.02
             276.11,31.08 278.60,31.10 280.18,32.74
             282.71,35.37 282.47,45.87 280.83,48.96
             278.13,54.01 271.25,55.27 266.00,54.90
             242.42,53.26 241.68,17.59 266.00,16.09
             270.68,15.81 282.08,17.81 279.25,24.91
             276.86,30.88 271.96,26.88 268.00,26.49
             263.66,26.07 259.35,29.85 258.47,34.00
             257.01,40.91 268.68,50.40 272.00,40.00
             262.17,39.65 264.54,33.49 266.52,32.02 Z
           M 75.69,45.60
           C 78.24,46.85 78.64,51.20 76.40,52.98
             74.82,54.23 70.98,54.00 69.00,54.00
             65.43,54.01 52.02,54.93 50.02,52.40
             48.96,51.06 49.03,48.62 49.00,47.00
             49.00,47.00 49.00,24.00 49.00,24.00
             49.03,22.38 48.96,19.94 50.02,18.60
             51.59,16.62 55.70,17.00 58.00,17.00
             61.57,16.99 74.98,16.07 76.98,18.60
             78.24,20.19 77.99,24.01 78.00,26.00
             78.00,26.00 59.00,26.00 59.00,26.00
             59.00,26.00 59.00,31.00 59.00,31.00
             61.39,31.00 68.89,30.72 70.63,31.60
             73.61,33.03 73.41,38.00 70.63,39.43
             68.86,40.29 61.32,40.00 59.00,40.00
             59.00,40.00 59.00,45.00 59.00,45.00
             61.95,45.00 73.73,44.64 75.69,45.60 Z
           M 89.83,52.43
           C 88.80,53.73 81.19,57.24 81.00,47.00
             81.00,47.00 81.00,25.00 81.00,25.00
             81.01,23.18 80.85,20.08 82.02,18.60
             83.37,16.90 86.05,17.04 88.00,17.00
             104.84,16.69 111.47,14.64 110.00,26.00
             110.00,26.00 91.00,26.00 91.00,26.00
             91.00,26.00 91.00,31.00 91.00,31.00
             93.65,31.00 101.51,30.52 103.40,32.02
             105.77,33.90 105.05,38.15 102.69,39.69
             100.13,41.34 94.09,41.00 91.00,41.00
             91.00,43.70 91.42,50.40 89.83,52.43 Z
           M 182.26,51.71
           C 180.90,54.40 175.86,54.73 174.02,52.40
             172.77,50.81 173.00,46.99 173.00,45.00
             173.00,45.00 173.00,24.00 173.00,24.00
             173.06,21.27 172.86,18.14 176.15,17.33
             182.63,15.74 189.87,27.01 192.00,32.00
             192.00,32.00 194.00,32.00 194.00,32.00
             195.84,28.52 196.97,27.08 199.35,24.00
             200.39,22.66 202.07,20.39 203.30,19.31
             206.75,16.30 211.85,16.01 213.43,21.06
             214.33,23.93 214.05,39.93 214.00,44.00
             213.97,46.53 213.99,50.45 212.15,52.40
             211.27,53.33 210.22,53.70 208.97,53.80
             204.25,54.16 204.07,50.60 204.00,47.00
             204.00,47.00 204.00,35.00 204.00,35.00
             198.24,41.33 194.37,50.10 186.58,39.96
             186.58,39.96 183.00,35.00 183.00,35.00
             183.00,38.20 183.41,49.44 182.26,51.71 Z
           M 239.00,45.00
           C 242.86,45.08 246.96,45.69 245.67,50.86
             244.77,54.43 240.90,53.98 238.00,54.00
             234.35,54.02 220.02,54.93 218.02,52.40
             216.85,50.92 217.01,47.82 217.00,46.00
             217.00,46.00 217.00,24.00 217.00,24.00
             217.04,22.05 216.90,19.37 218.60,18.02
             220.19,16.77 224.01,17.00 226.00,17.00
             229.35,16.99 242.28,16.34 244.40,18.02
             245.76,19.10 246.07,21.26 245.67,22.86
             244.84,26.15 241.74,25.94 239.00,26.00
             239.00,26.00 226.00,26.00 226.00,26.00
             226.00,26.00 226.00,31.00 226.00,31.00
             228.44,31.00 236.81,30.69 238.57,31.57
             241.44,33.02 241.44,37.98 238.57,39.43
             236.81,40.31 228.44,40.00 226.00,40.00
             226.00,40.00 226.00,45.00 226.00,45.00
             226.00,45.00 239.00,45.00 239.00,45.00 Z
           M 304.79,18.03
           C 307.30,19.46 308.98,23.47 310.25,26.00
             310.25,26.00 318.00,42.00 318.00,42.00
             319.44,45.38 322.34,50.26 318.68,53.26
             313.51,57.50 311.57,50.94 308.61,48.60
             306.63,47.02 304.42,47.01 302.00,47.01
             299.65,47.01 297.51,46.99 295.63,48.60
             293.51,50.41 291.95,55.71 287.11,54.05
             282.62,52.52 283.90,48.27 285.32,45.00
             287.86,39.12 295.42,21.77 299.39,18.03
             301.49,17.29 302.59,16.77 304.79,18.03 Z
           M 300.00,38.00
           C 300.00,38.00 304.00,38.00 304.00,38.00
             304.00,38.00 303.00,34.00 303.00,34.00
             303.00,34.00 300.00,38.00 300.00,38.00 Z" />
</svg>
