<?xml version="1.0" standalone="no"?>
<!DOCTYPE svg PUBLIC "-//W3C//DTD SVG 20010904//EN"
 "http://www.w3.org/TR/2001/REC-SVG-20010904/DTD/svg10.dtd">
<svg version="1.0" xmlns="http://www.w3.org/2000/svg"
 width="334.000000pt" height="65.000000pt" viewBox="0 0 334.000000 65.000000"
 preserveAspectRatio="xMidYMid meet">

<g transform="translate(0.000000,65.000000) scale(0.100000,-0.100000)"
fill="#000000" stroke="none">
<path d="M265 475 c-79 -31 -125 -96 -125 -180 0 -85 37 -140 119 -177 52 -24
123 -20 171 9 35 20 39 50 11 84 -19 23 -19 23 -55 6 -53 -25 -83 -21 -117 12
-78 78 9 192 112 146 38 -17 40 -17 59 0 69 63 -67 140 -175 100z"/>
<path d="M1275 478 c-20 -11 -35 -28 -35 -39 0 -4 27 -48 60 -98 56 -85 60
-96 60 -149 0 -31 4 -62 8 -68 12 -18 50 -26 72 -14 17 9 20 21 20 71 0 57 3
65 60 149 33 49 60 98 60 109 0 25 -43 55 -67 47 -10 -3 -36 -36 -59 -72 l-41
-67 -46 72 c-48 73 -57 79 -92 59z"/>
<path d="M2606 480 c-37 -12 -94 -66 -112 -107 -29 -68 -7 -170 47 -220 73
-67 209 -70 259 -5 19 23 21 37 18 100 -2 50 -8 76 -18 82 -8 5 -43 10 -78 10
-56 0 -64 -2 -71 -22 -13 -36 2 -63 38 -66 27 -3 32 -7 29 -25 -2 -17 -11 -23
-39 -25 -28 -2 -42 3 -67 27 -43 40 -44 90 -3 132 33 33 67 37 111 14 44 -23
80 2 80 53 0 44 -117 75 -194 52z"/>
<path d="M495 467 c-3 -7 -4 -89 -3 -182 l3 -170 140 0 140 0 0 40 0 40 -92 3
c-91 3 -93 3 -93 27 0 24 3 25 65 25 60 0 65 2 71 24 13 53 4 61 -69 64 -64 3
-67 4 -67 27 0 25 1 25 96 25 l95 0 -3 43 -3 42 -138 3 c-106 2 -139 0 -142
-11z"/>
<path d="M814 467 c-2 -7 -3 -89 -2 -182 l3 -170 39 -3 c48 -4 56 6 56 76 l0
52 44 0 c25 0 57 4 71 10 23 9 26 15 23 47 l-3 38 -67 3 c-65 3 -68 4 -68 27
0 25 1 25 94 25 87 0 94 2 99 21 3 12 2 32 -3 45 -9 24 -11 24 -145 24 -101 0
-137 -3 -141 -13z"/>
<path d="M1734 467 c-2 -7 -3 -89 -2 -182 l3 -170 39 -3 c24 -2 42 2 47 10 5
7 9 51 9 98 l0 85 33 -47 c51 -76 83 -76 138 0 l34 47 5 -95 5 -95 38 -3 c32
-3 38 0 47 23 13 34 13 286 0 319 -8 21 -16 26 -44 26 -32 0 -40 -7 -93 -75
-31 -41 -60 -75 -63 -74 -3 0 -31 34 -63 75 -52 67 -60 74 -92 74 -20 0 -38
-6 -41 -13z"/>
<path d="M2175 467 c-3 -7 -4 -89 -3 -182 l3 -170 140 0 140 0 0 40 0 40 -97
3 c-97 3 -98 3 -98 27 0 24 2 25 70 25 65 0 70 1 76 24 3 14 3 34 -1 45 -6 19
-14 21 -76 21 -67 0 -69 1 -69 25 0 24 1 24 98 27 l97 3 0 40 0 40 -138 3
c-106 2 -139 0 -142 -11z"/>
<path d="M2918 333 c-38 -81 -74 -158 -79 -169 -11 -30 9 -54 46 -57 25 -2 33
4 50 35 l20 38 67 0 68 0 20 -40 c12 -24 28 -40 38 -40 25 0 62 28 62 48 0 9
-35 87 -78 172 -74 150 -78 155 -110 158 l-33 3 -71 -148z m122 -49 c0 -8 -9
-14 -20 -14 -18 0 -19 3 -10 20 12 22 30 18 30 -6z"/>
</g>
</svg>
