<?xml version="1.0" standalone="yes"?>
<svg width="334" height="65">
<path style="fill:#ffffff; stroke:none;" d="M0 0L0 65L334 65L334 0L0 0z"/>
<path style="fill:#0a1774; stroke:none;" d="M30 16.5216C1.72039 22.2277 15.9469 64.8076 40.9807 53.4668C45.1449 51.5804 48.3726 44.4056 41.8912 42.8164C36.5406 41.5044 21.584 47.5325 24.4776 34.0039C27.1679 21.4259 38.1325 31.8095 43.6813 27.3781C52.3929 20.4208 34.8388 15.5453 30 16.5216z"/>
<path style="fill:#292626; stroke:none;" d="M141 30C139.008 25.7877 131.843 10.9371 125.785 18.5733C121.225 24.3226 133.896 35.4632 135.49 41C136.515 44.5584 134.917 49.3429 137.179 52.4853C138.595 54.452 141.609 55.0336 143.683 53.7809C147.539 51.4519 145.453 44.6698 146.843 41C149.248 34.6499 156.064 29.7157 157.431 23.0039C158.231 19.077 154.26 14.9843 150.329 17.0718C146.253 19.2356 143.523 26.2575 141 30z"/>
<path style="fill:#000000; stroke:none;" d="M262 16L263 17L262 16z"/>
<path style="fill:#fd1402; stroke:none;" d="M272 40C269.143 49.4095 256.851 41.6669 258.478 34.0008C261.068 21.793 281.266 32.6576 279.573 22.1813C277.253 7.82346 253.074 19.6642 249.573 27C241.685 43.5237 263.886 65.0107 278.772 51.5702C288.057 43.1868 280.818 27.6379 268.134 31.3179C260.528 33.5247 267.105 39.8393 272 40z"/>
<path style="fill:#0a1774; stroke:none;" d="M78 54C78.954 42.0716 67.8473 45 59 45L59 40C62.4161 40 67.5498 40.9386 70.6821 39.3966C73.5736 37.9732 73.5736 33.0268 70.6821 31.6034C67.5497 30.0614 62.4161 31 59 31L59 26L78 26C77.9914 23.5762 78.565 19.7435 76.3966 18.0278C73.1458 15.4557 53.8533 15.4538 50.6034 18.0278C46.1621 21.5454 48.9889 39.6276 49 45C49.005 47.4197 48.4355 51.2552 50.6034 52.9722C55.5858 56.9184 71.7379 54 78 54M91 41C94.1955 40.9996 112.248 39.0546 103.397 32.0278C100.616 29.8199 94.3537 31 91 31L91 26L110 26L110 17C103.738 17 87.5858 14.0816 82.6034 18.0278C80.4355 19.7448 81.005 23.5803 81 26C80.9876 32.0237 78.212 47.5785 82.0278 52.3966C89.2112 61.467 91 44.4075 91 41z"/>
<path style="fill:#fd1402; stroke:none;" d="M183 35L184 35C189.852 48.9027 196.262 43.4714 204 35L204 44C204.002 49.5502 210.17 60.3096 213.427 49.9414C216.767 39.3123 215.238 3.53449 199.35 24.0008C197.336 26.5955 195.491 29.0795 194 32L192 32C190.254 27.8745 179.919 11.1899 174.028 18.6034C170.495 23.049 171.704 45.4156 173.318 50.8519C174.405 54.5136 180.485 55.1589 182.258 51.6821C184.452 47.3782 183 39.7398 183 35z"/>
<path style="fill:#000000; stroke:none;" d="M181 17L182 18L181 17z"/>
<path style="fill:#fd1402; stroke:none;" d="M226 45L226 40C229.609 40 235.281 41.0676 238.566 39.3966C241.425 37.9428 241.425 33.0572 238.566 31.6034C235.281 29.9324 229.609 31 226 31L226 26C230.376 26 249.768 28.6023 245.392 19.3171C243.471 15.2412 233.672 17 230 17C226.849 17 220.261 15.7837 218.028 18.6034C214.212 23.4212 216.988 38.9765 217 45C217.005 47.4197 216.436 51.2552 218.603 52.9722C221.891 55.576 243.509 55.6785 245.392 51.6829C249.768 42.3977 230.376 45 226 45M299.39 18.0324C292.873 22.0425 287.59 38.9973 284.892 46C283.72 49.0412 283.336 52.7575 287.109 54.0478C292.724 55.9684 297.057 45.881 304.985 47.1481C310.021 47.9533 312.325 56.8608 317.855 53.8017C325.467 49.5913 311.014 26.1946 307.648 21.0586C305.852 18.3183 302.66 16.0205 299.39 18.0324z"/>
<path style="fill:#000000; stroke:none;" d="M182 18L183 19L182 18M213 20L214 21L213 20M201 21L202 22L201 21M253 21L254 22L253 21M185 22L186 23L185 22M252 22L253 23L252 22M198 25L199 26L198 25M264 34L265 35L264 34z"/>
<path style="fill:#ffffff; stroke:none;" d="M302 34L300 38L304 38L302 34z"/>
<path style="fill:#000000; stroke:none;" d="M183 35L184 36L183 35M303 35L304 36L303 35M289 36L290 37L289 36M200 38L201 39L200 38M258 38L259 39L258 38M186 39L187 40L186 39M259 40L260 41L259 40M318 43L319 44L318 43M264 44L265 45L264 44M319 45L320 46L319 45M320 47L321 48L320 47M283 49L284 50L283 49M320 52L321 53L320 52M212 53L213 54L212 53M259 53L260 54L259 53M262 54L263 55L262 54M287 54L288 55L287 54z"/>
</svg>
